<svg width="38" height="38" viewBox="0 0 38 38" fill="none" xmlns="http://www.w3.org/2000/svg">
<path d="M34.8333 37.75L21.7083 24.625C20.6667 25.4583 19.4687 26.1181 18.1146 26.6042C16.7604 27.0903 15.3194 27.3333 13.7917 27.3333C10.0069 27.3333 6.80417 26.0222 4.18333 23.4C1.5625 20.7778 0.251389 17.575 0.25 13.7917C0.25 10.0069 1.56111 6.80417 4.18333 4.18333C6.80556 1.5625 10.0083 0.251389 13.7917 0.25C17.5764 0.25 20.7799 1.56111 23.4021 4.18333C26.0243 6.80556 27.3347 10.0083 27.3333 13.7917C27.3333 15.3194 27.0903 16.7604 26.6042 18.1146C26.1181 19.4687 25.4583 20.6667 24.625 21.7083L37.75 34.8333L34.8333 37.75ZM13.7917 23.1667C16.3958 23.1667 18.6097 22.2556 20.4333 20.4333C22.2569 18.6111 23.1681 16.3972 23.1667 13.7917C23.1667 11.1875 22.2556 8.97431 20.4333 7.15208C18.6111 5.32986 16.3972 4.41806 13.7917 4.41667C11.1875 4.41667 8.97431 5.32847 7.15208 7.15208C5.32986 8.97569 4.41806 11.1889 4.41667 13.7917C4.41667 16.3958 5.32847 18.6097 7.15208 20.4333C8.97569 22.2569 11.1889 23.1681 13.7917 23.1667Z" fill="#466349"/>
</svg>
